# xmcd
#
# Track frame offsets:
#	150
#	9988
#	28650
#	34514
#	47027
#	61555
#	75564
#	84287
#	93121
#	104655
#	116943
#	127855
#	142399
#	151623
#	161620
#
# Disc length: 2358 seconds
#
# Revision: 1
# Processed by: cddbd v1.5.2PL0 Copyright (c) Steve Scherf et al.
# Submitted via: audiograbber 1.83.01
#
DISCID=ad09340f
DTITLE=Various Artist - Die 60 größten Kinderhits - CD3
DYEAR=2014
DGENRE=kids
TTITLE0=Wickie
TTITLE1=Das Lied der Schlümpfe
TTITLE2=Pippi Langstrumpf
TTITLE3=Heidi
TTITLE4=Die Maus im Kornfeld
TTITLE5=Pinocchio
TTITLE6=Ein Lama in Yokohama (Coverversion)
TTITLE7=Alice im Wunderland
TTITLE8=Fridolin das kleine Gespenst
TTITLE9=Sindbad
TTITLE10=Kasperl-Lied
TTITLE11=Bronti, der Supersaurier
TTITLE12=Hurra, hurra der Pumuckl ist da
TTITLE13=Sahara-Klara (ich bin ein Kamel)
TTITLE14=Winnetou
EXTD=
EXTT0=
EXTT1=
EXTT2=
EXTT3=
EXTT4=
EXTT5=
EXTT6=
EXTT7=
EXTT8=
EXTT9=
EXTT10=
EXTT11=
EXTT12=
EXTT13=
EXTT14=
PLAYORDER=
